<?xml version="1.0" standalone="no"?>
<!DOCTYPE svg PUBLIC "-//W3C//DTD SVG 20010904//EN"
 "http://www.w3.org/TR/2001/REC-SVG-20010904/DTD/svg10.dtd">
<svg version="1.0" xmlns="http://www.w3.org/2000/svg"
 width="2000.000000pt" height="2000.000000pt" viewBox="0 0 2000.000000 2000.000000"
 preserveAspectRatio="xMidYMid meet">

<g transform="translate(0.000000,2000.000000) scale(0.100000,-0.100000)"
fill="#000000" stroke="none">
<path d="M8420 19274 c-14 -2 -56 -9 -95 -15 -291 -47 -570 -256 -860 -644
-65 -88 -156 -210 -201 -271 -119 -159 -183 -234 -202 -234 -31 0 -249 59
-442 120 -412 129 -539 154 -780 155 -196 0 -268 -12 -414 -69 -263 -104 -510
-357 -647 -666 -238 -532 -297 -1534 -148 -2495 49 -316 150 -766 245 -1093
20 -68 32 -127 28 -131 -5 -5 -39 -20 -75 -34 -627 -246 -1243 -754 -1512
-1247 -136 -249 -193 -586 -152 -893 72 -543 410 -982 965 -1256 75 -36 193
-86 263 -111 123 -43 128 -46 123 -70 -41 -212 -45 -254 -46 -407 0 -90 4
-163 9 -163 4 0 24 26 44 59 46 74 140 161 212 196 31 15 58 25 61 22 3 -2
-33 -63 -80 -133 -358 -546 -567 -1138 -652 -1854 -25 -204 -25 -688 0 -889
18 -152 70 -458 78 -467 3 -2 20 37 38 87 19 51 50 117 71 148 41 61 165 188
174 179 4 -3 0 -44 -7 -89 -17 -108 -16 -685 2 -779 19 -105 97 -417 129 -517
37 -114 150 -401 168 -428 13 -18 14 -17 9 15 -14 86 -26 237 -26 317 1 260
130 520 342 688 86 68 103 76 94 48 -39 -126 -51 -477 -22 -659 42 -272 127
-507 264 -729 35 -57 145 -205 152 -205 4 0 4 52 2 116 -10 262 59 452 232
631 66 70 201 172 211 161 2 -2 -2 -48 -8 -103 -13 -125 2 -290 39 -425 26
-95 100 -261 119 -266 6 -1 42 34 80 78 79 90 234 225 310 268 82 47 195 80
272 80 37 0 74 -4 80 -8 8 -5 15 -49 19 -123 8 -138 -7 -260 -47 -379 -15 -46
-26 -86 -24 -89 7 -6 135 17 250 46 100 25 252 78 269 94 24 22 28 4 21 -93
-8 -121 8 -336 36 -498 51 -286 169 -591 316 -820 66 -102 175 -249 186 -250
4 0 7 33 7 73 0 40 8 105 18 143 22 81 68 176 75 154 3 -8 17 -59 32 -114 147
-538 445 -1051 846 -1457 125 -126 326 -305 334 -297 2 2 -10 46 -27 98 -25
79 -30 112 -31 195 0 95 24 225 43 225 3 0 17 -23 31 -52 31 -68 117 -187 201
-279 68 -74 152 -149 438 -387 307 -256 466 -456 530 -669 38 -127 69 -124
115 13 81 239 233 418 631 745 283 231 427 384 519 552 20 37 41 69 45 72 11
7 25 -43 41 -142 14 -85 2 -182 -37 -295 -13 -39 -22 -73 -19 -76 8 -8 205
167 330 293 399 402 694 905 845 1443 21 73 40 135 43 138 8 9 65 -133 76
-191 6 -32 11 -87 11 -122 0 -35 4 -63 8 -63 9 0 21 16 117 149 209 293 343
634 401 1021 12 76 18 180 18 307 1 106 1 193 2 193 0 0 20 -9 43 -21 56 -27
176 -66 271 -89 105 -25 219 -44 225 -38 3 3 -3 27 -13 54 -42 105 -57 202
-57 360 0 113 4 155 14 168 34 41 233 7 351 -61 59 -34 220 -164 261 -211 17
-20 54 -61 82 -91 l50 -53 18 23 c27 35 86 181 110 268 30 113 45 296 32 411
-5 52 -8 97 -6 99 9 11 149 -98 216 -168 170 -178 237 -368 225 -640 l-6 -115
24 29 c219 273 361 606 405 952 18 142 14 405 -9 533 -11 58 -18 107 -16 109
4 4 57 -33 118 -84 150 -123 273 -340 307 -539 11 -66 9 -176 -6 -391 l-6 -80
50 119 c198 465 283 900 268 1364 -3 98 -11 212 -17 255 -6 44 -8 82 -5 85 4
4 44 -32 89 -79 85 -89 126 -157 167 -277 12 -34 24 -61 26 -59 6 7 52 260 67
377 59 442 43 902 -45 1355 -63 322 -163 645 -279 900 -114 250 -194 397 -322
589 -44 65 -77 121 -73 124 12 12 118 -52 176 -105 31 -29 74 -80 95 -113 22
-33 42 -60 47 -60 11 0 8 302 -4 383 -28 187 -100 404 -206 621 -24 48 -101
192 -170 320 -70 127 -153 287 -186 356 -66 138 -167 384 -167 405 0 8 35 -11
83 -45 78 -57 383 -218 392 -208 3 3 -6 18 -21 34 -100 114 -152 190 -200 289
-141 298 -159 597 -70 1215 85 593 122 1162 97 1515 -4 55 -5 102 -3 105 15
19 128 -169 184 -308 22 -53 45 -101 50 -107 13 -12 4 333 -12 470 -86 756
-385 1425 -884 1975 -42 47 -81 87 -87 88 -5 2 -9 -37 -9 -93 0 -115 -18 -191
-67 -289 -112 -223 -354 -452 -952 -901 l-144 -108 -40 49 c-78 95 -263 270
-357 336 -240 169 -556 280 -910 318 -134 15 -454 15 -590 1 -172 -19 -345
-49 -519 -92 -90 -23 -167 -37 -171 -32 -5 4 -33 67 -63 138 -30 72 -67 157
-82 190 -15 33 -36 80 -47 105 -165 370 -454 886 -676 1208 -238 348 -454 606
-746 897 -402 401 -728 602 -1086 671 -75 15 -283 26 -330 18z m326 -134 c310
-63 597 -241 969 -602 522 -505 949 -1106 1333 -1875 109 -218 272 -564 272
-578 0 -2 11 -28 24 -57 50 -110 124 -285 146 -346 20 -54 21 -65 9 -77 -39
-38 -493 -317 -763 -469 -1533 -864 -3317 -1410 -5061 -1550 -104 -9 -242 -18
-305 -21 -63 -3 -138 -8 -167 -10 -33 -3 -54 0 -61 8 -9 12 -84 242 -98 302
-4 17 -17 62 -30 100 -28 87 -116 430 -150 585 -126 579 -173 963 -181 1481
-6 368 3 573 38 830 50 379 100 569 209 794 151 314 388 520 685 596 76 20
115 23 255 23 213 0 302 -15 736 -123 383 -96 445 -106 679 -105 152 1 212 5
250 17 l50 16 -120 -5 c-109 -5 -279 6 -292 19 -3 3 24 39 59 79 35 40 124
152 198 248 74 96 171 218 216 270 347 404 671 537 1100 450z m6606 -2557
c335 -406 579 -913 692 -1443 22 -104 44 -245 61 -387 7 -64 -5 -63 -50 2 -52
77 -207 276 -211 272 -2 -2 3 -55 11 -118 57 -437 39 -1004 -50 -1634 -70
-488 -89 -766 -66 -965 17 -139 60 -308 105 -405 20 -43 35 -82 34 -87 -9 -27
-206 144 -304 263 -31 38 -58 68 -60 66 -4 -4 28 -132 66 -265 61 -211 182
-481 369 -822 276 -503 365 -734 388 -1007 l6 -76 -65 46 c-36 26 -90 58 -119
71 -68 30 -278 98 -290 94 -6 -2 27 -50 72 -108 211 -269 392 -586 524 -914
73 -183 100 -332 112 -626 6 -158 -4 -410 -16 -410 -3 0 -15 16 -26 36 -18 34
-130 144 -146 144 -4 0 7 -33 26 -73 82 -182 125 -377 125 -572 0 -147 -8
-215 -26 -215 -7 0 -14 4 -16 9 -5 16 -121 134 -173 178 -54 45 -132 83 -171
83 l-24 0 34 -47 c88 -124 147 -287 201 -557 34 -167 59 -446 41 -446 -4 0
-14 17 -22 37 -30 71 -128 207 -204 282 -68 69 -202 171 -244 187 -9 4 10 -31
43 -77 133 -185 221 -434 221 -626 l0 -65 -38 34 c-75 67 -233 160 -248 145
-3 -3 18 -40 47 -83 83 -123 208 -393 196 -427 -1 -5 -20 19 -42 54 -48 79
-171 208 -250 264 -63 45 -224 129 -231 122 -3 -3 8 -56 25 -119 47 -184 69
-407 53 -543 l-8 -70 -22 70 c-39 128 -106 236 -201 329 -54 53 -68 56 -51 10
27 -71 51 -219 57 -351 3 -79 4 -143 1 -143 -3 0 -24 24 -45 53 -92 121 -204
211 -347 277 -82 39 -186 74 -186 63 0 -3 24 -36 54 -72 76 -93 150 -206 205
-314 53 -103 103 -218 98 -223 -2 -2 -25 21 -52 52 -73 85 -186 170 -302 225
-58 28 -106 49 -109 47 -2 -3 5 -45 16 -94 49 -218 30 -478 -46 -653 l-24 -53
-100 95 c-201 194 -370 278 -555 276 -38 0 -88 -6 -110 -12 -33 -11 -41 -18
-48 -47 -16 -65 -12 -369 6 -445 8 -38 14 -72 11 -74 -6 -7 -214 49 -284 77
-36 14 -102 47 -147 73 -45 26 -84 45 -86 43 -2 -2 0 -29 4 -60 17 -123 21
-304 10 -433 -27 -308 -88 -540 -212 -800 -58 -121 -164 -301 -178 -301 -4 0
-12 21 -19 46 -7 25 -26 74 -43 108 -42 85 -131 219 -139 209 -3 -4 -14 -51
-24 -103 -41 -226 -142 -522 -255 -750 -176 -354 -377 -634 -649 -903 l-99
-99 -7 94 c-7 104 -32 204 -78 318 -46 112 -52 115 -78 33 -50 -154 -141 -301
-275 -442 -49 -52 -193 -181 -320 -286 -350 -293 -482 -435 -588 -634 l-44
-83 -31 67 c-84 178 -254 364 -597 650 -379 316 -507 472 -595 728 -13 37 -26
67 -29 67 -11 0 -83 -184 -102 -260 -11 -41 -22 -115 -27 -164 l-7 -89 -140
144 c-213 219 -400 472 -530 714 -26 50 -60 113 -75 140 -40 76 -134 308 -170
420 -35 111 -84 305 -95 375 -13 79 -18 78 -82 -22 -62 -97 -109 -193 -119
-247 -4 -17 -10 -31 -14 -31 -24 0 -175 276 -239 438 -135 339 -189 753 -142
1095 4 31 6 59 3 62 -2 2 -27 -10 -56 -28 -72 -46 -152 -83 -237 -110 -87 -28
-218 -61 -223 -56 -2 2 3 38 11 79 17 84 22 300 10 403 -10 82 -18 87 -133 95
-196 12 -377 -74 -591 -281 l-92 -89 -19 39 c-11 21 -32 88 -48 148 -25 98
-28 127 -28 265 1 122 5 175 22 249 12 52 20 96 18 98 -7 8 -175 -75 -234
-116 -77 -52 -170 -138 -207 -191 -59 -85 -39 -10 41 155 61 126 145 258 227
360 31 39 57 73 57 77 0 26 -241 -80 -333 -146 -64 -45 -180 -160 -211 -208
-10 -16 -22 -28 -27 -28 -12 0 -11 147 1 248 6 45 21 124 35 175 13 50 21 94
18 97 -3 3 -37 -29 -77 -71 -74 -79 -139 -188 -172 -289 l-19 -55 -7 55 c-17
115 11 374 58 549 14 51 23 95 20 98 -7 8 -164 -74 -226 -118 -111 -78 -208
-188 -299 -339 -31 -51 -26 -16 13 91 41 117 102 239 173 348 30 46 52 85 49
88 -14 14 -176 -80 -245 -143 l-41 -36 0 58 c0 65 21 196 43 271 39 131 128
303 209 405 16 21 26 38 22 38 -19 0 -182 -120 -242 -179 -71 -69 -155 -181
-200 -266 l-27 -50 -3 40 c-7 71 20 316 48 455 43 208 110 388 186 493 l36 50
-37 -6 c-80 -13 -167 -74 -280 -198 -44 -48 -74 -73 -80 -67 -6 5 -10 86 -10
201 0 149 4 210 18 272 25 111 64 227 103 310 18 38 31 71 29 74 -10 9 -101
-77 -135 -127 -19 -29 -38 -48 -42 -44 -15 15 -21 370 -9 512 22 246 37 319
105 489 144 358 313 656 530 935 47 60 84 112 81 114 -6 6 -148 -37 -241 -73
-79 -31 -214 -111 -214 -127 0 -4 -4 -8 -10 -8 -21 0 -4 167 31 298 9 32 16
41 28 38 185 -57 553 -116 821 -133 l105 -6 85 -56 c89 -60 185 -100 283 -121
71 -14 66 -25 -31 -71 -53 -26 -82 -33 -154 -37 -48 -3 -88 -6 -88 -9 0 -11
57 -91 93 -130 89 -97 216 -162 375 -191 85 -16 113 -32 79 -45 -22 -8 -163
-181 -203 -250 l-38 -64 -126 -17 c-188 -25 -277 -42 -269 -51 3 -2 59 4 124
15 145 22 255 34 255 27 0 -3 -12 -28 -26 -56 -36 -72 -79 -202 -99 -296 -20
-96 -33 -379 -17 -389 5 -3 22 15 38 41 84 146 263 345 374 415 59 37 126 65
135 56 3 -3 -9 -47 -26 -99 -49 -147 -52 -298 -8 -461 5 -21 13 -38 17 -38 4
0 22 25 40 55 80 134 243 249 417 294 69 18 78 16 70 -21 -12 -59 -42 -116
-85 -162 -53 -57 -46 -61 91 -53 117 7 209 28 298 68 35 16 66 27 69 25 18
-19 -186 -343 -221 -351 -12 -3 -74 -14 -137 -24 -204 -35 -534 -111 -549
-127 -3 -4 8 -4 24 0 17 4 57 13 90 20 205 46 542 103 552 93 10 -11 -189
-198 -277 -261 l-95 -69 85 7 c136 10 323 50 442 96 77 30 249 113 244 118 -3
2 -39 -12 -81 -32 -107 -50 -241 -94 -375 -122 -117 -24 -180 -30 -180 -16 1
4 28 27 62 52 34 25 105 89 159 143 l97 98 93 12 c124 15 864 16 879 1 7 -7 6
-29 -5 -75 -9 -35 -18 -116 -22 -180 l-6 -116 -121 -12 c-682 -68 -1393 -270
-2021 -577 -60 -30 -114 -54 -119 -54 -20 0 42 153 101 247 18 29 28 55 24 57
-12 8 -108 -22 -166 -51 -27 -14 -76 -52 -107 -85 l-58 -59 0 68 c0 127 39
222 139 340 34 39 61 74 61 76 0 2 -47 -20 -105 -49 -167 -83 -313 -108 -474
-80 -136 24 -138 27 -46 71 134 65 291 180 360 265 11 13 -11 -2 -50 -35 -137
-115 -284 -195 -420 -230 -38 -10 -74 -22 -79 -26 -12 -11 99 -63 179 -85 111
-30 329 -29 410 2 11 5 9 -10 -12 -62 -24 -62 -27 -82 -28 -194 0 -103 4 -138
23 -197 12 -40 27 -73 32 -73 6 0 10 5 10 12 0 28 81 176 114 207 20 19 38 32
41 29 3 -2 -10 -51 -28 -108 l-33 -103 -57 -31 c-101 -56 -236 -140 -232 -144
2 -2 27 10 55 27 28 17 52 31 54 31 2 0 41 21 86 46 45 25 83 44 85 42 2 -2
-1 -52 -8 -112 -13 -126 0 -292 32 -419 24 -92 100 -287 112 -287 5 0 9 4 9
10 0 16 110 171 169 239 117 134 302 268 477 345 86 38 257 90 274 84 7 -2 -4
-33 -26 -76 -35 -67 -108 -150 -173 -195 -14 -9 -22 -19 -19 -22 6 -7 113 -25
146 -25 13 0 20 4 17 10 -3 5 -21 10 -38 10 -18 0 -42 3 -55 6 -20 6 -17 11
42 65 35 33 82 87 103 122 41 66 75 145 68 157 -6 9 -101 -6 -195 -31 -308
-82 -597 -277 -774 -524 -13 -19 -15 -18 -28 15 -63 153 -84 424 -47 619 l12
63 136 65 c626 300 1326 483 2088 548 l72 6 6 -28 c18 -84 62 -207 98 -277 32
-63 38 -81 27 -84 -8 -3 -89 -43 -179 -88 -181 -92 -396 -231 -541 -349 -133
-109 -413 -394 -488 -498 -34 -48 -60 -87 -58 -87 2 0 30 33 62 73 86 107 316
339 419 421 220 177 442 313 695 426 62 27 120 50 129 50 9 0 28 -17 42 -38
15 -20 54 -67 88 -103 101 -111 200 -367 276 -714 37 -171 107 -623 105 -679
-1 -6 -20 28 -44 77 -24 48 -84 147 -133 220 -49 72 -101 153 -116 180 -16 26
-30 47 -33 47 -8 0 25 -70 73 -153 131 -228 200 -389 217 -507 l6 -45 -21 35
c-123 199 -248 365 -414 544 -168 183 -214 237 -277 331 -71 106 -74 110 -57
70 28 -66 123 -198 244 -340 386 -452 548 -748 625 -1143 63 -323 106 -465
195 -647 128 -265 340 -480 567 -577 104 -44 278 -85 463 -110 216 -30 665
-32 885 -4 411 51 605 129 809 329 211 206 350 497 426 889 48 245 77 351 130
478 109 259 213 416 516 780 164 197 216 269 253 354 39 87 31 90 -12 5 -48
-94 -103 -169 -217 -293 -169 -184 -226 -251 -309 -356 -87 -110 -201 -277
-218 -320 -19 -45 -20 -2 -3 68 32 127 84 245 179 405 58 98 106 193 106 209
0 7 -17 -16 -38 -52 -21 -36 -75 -119 -119 -185 -45 -67 -102 -161 -127 -210
-25 -50 -45 -87 -46 -83 0 13 40 321 55 418 70 443 201 842 318 970 27 30 66
76 86 103 19 26 43 47 53 47 19 0 35 -7 215 -90 195 -91 428 -240 608 -388
103 -83 322 -299 409 -402 77 -91 25 -17 -74 105 -58 73 -334 338 -425 411
-180 142 -377 264 -592 366 -60 28 -109 52 -111 54 -2 1 15 37 36 81 35 69 80
196 97 276 6 31 -7 31 240 6 652 -64 1348 -256 1926 -531 l136 -65 12 -59 c19
-93 25 -269 12 -367 -13 -96 -54 -264 -67 -277 -5 -5 -37 27 -72 70 -193 243
-515 431 -832 484 -47 8 -87 13 -89 10 -7 -7 31 -98 65 -155 19 -31 65 -86
104 -122 81 -77 81 -76 -46 -101 -120 -23 -122 -24 -83 -25 46 -1 187 25 230
43 l32 13 -44 31 c-24 16 -58 45 -75 64 -44 46 -114 157 -114 180 0 24 21 21
154 -23 299 -99 572 -310 724 -561 26 -43 50 -78 53 -78 8 0 66 139 91 218 47
154 67 350 49 501 -6 52 -9 97 -6 99 2 2 34 -13 70 -33 82 -45 96 -41 17 5
-31 18 -65 38 -76 44 -18 12 -92 214 -81 224 8 8 53 -37 84 -83 15 -22 41 -71
57 -109 l29 -70 24 75 c21 62 24 94 25 204 1 120 -1 135 -26 195 -15 35 -26
65 -25 66 1 2 34 -4 72 -12 86 -19 263 -14 350 10 73 20 190 74 181 83 -3 4
-43 17 -89 30 -149 43 -270 110 -414 230 -41 34 -56 43 -38 23 87 -97 187
-170 329 -242 115 -58 115 -60 -22 -85 -161 -28 -330 2 -489 87 -51 28 -93 49
-93 46 0 -2 27 -37 60 -78 34 -40 77 -106 97 -147 31 -65 37 -86 41 -169 l5
-95 -59 60 c-33 33 -82 72 -109 86 -46 23 -146 57 -168 57 -4 0 5 -24 21 -52
62 -109 70 -126 92 -186 13 -35 20 -65 17 -68 -3 -4 -62 21 -131 55 -69 33
-127 61 -130 61 -3 0 -42 17 -88 39 -107 49 -390 158 -538 206 -391 127 -871
228 -1256 266 l-121 12 -6 111 c-2 61 -13 144 -22 184 -9 40 -14 76 -10 80 13
13 784 7 885 -6 l94 -13 102 -102 c55 -56 126 -120 157 -142 31 -22 56 -43 57
-47 2 -41 -387 57 -559 140 -25 12 -46 20 -49 18 -6 -6 102 -60 190 -95 137
-54 396 -111 505 -111 l46 0 -79 57 c-43 31 -107 81 -142 111 -66 58 -148 150
-140 157 10 10 338 -45 543 -91 33 -7 74 -16 90 -20 17 -4 28 -4 25 -1 -17 18
-423 110 -610 138 -94 15 -102 20 -166 117 -43 64 -134 232 -134 248 0 6 26
-3 59 -19 83 -41 190 -66 307 -74 140 -8 147 -4 95 52 -42 46 -73 104 -86 163
-6 28 -4 32 15 32 12 0 63 -14 112 -30 150 -50 271 -142 359 -272 48 -70 51
-69 74 42 28 135 15 301 -35 431 -11 30 -20 57 -20 62 0 12 25 8 73 -13 128
-57 314 -245 432 -437 20 -35 42 -60 48 -56 6 4 8 61 4 162 -8 208 -37 334
-113 500 -19 41 -32 76 -30 79 3 2 47 -1 98 -7 51 -6 116 -13 143 -16 91 -9 0
12 -130 30 -86 12 -124 21 -133 33 -7 9 -39 54 -70 100 -32 45 -87 114 -121
153 -35 38 -62 71 -60 73 2 1 45 10 95 19 196 37 347 132 439 276 14 23 25 42
25 44 0 3 -40 6 -88 9 -72 4 -101 11 -154 37 -101 48 -102 54 -5 78 266 66
472 252 581 526 17 43 15 45 -24 17 -74 -53 -141 -74 -251 -78 -138 -6 -231
13 -419 85 -225 85 -351 124 -401 122 -13 0 10 -9 51 -20 41 -11 170 -57 285
-103 290 -115 313 -121 470 -121 104 0 137 3 164 18 19 9 36 17 38 17 24 0
-63 -126 -140 -202 -137 -133 -293 -205 -484 -224 -44 -4 -73 -11 -73 -18 0
-16 76 -92 125 -126 33 -22 107 -53 184 -76 20 -6 -30 -57 -103 -105 -101 -66
-279 -109 -453 -109 -35 0 -63 -4 -63 -8 0 -5 28 -29 63 -54 78 -58 189 -172
250 -259 26 -37 47 -70 47 -74 0 -4 -10 -5 -22 -2 -50 13 -444 18 -608 8 -96
-5 -176 -8 -178 -7 -1 2 5 47 14 102 21 120 10 245 -31 364 -14 41 -28 82 -31
90 -4 13 5 15 67 12 40 -3 103 1 140 7 77 14 190 52 193 65 0 4 -35 20 -79 35
-142 46 -254 135 -346 276 -58 88 -66 135 -17 103 42 -27 178 -65 178 -49 0 5
-15 12 -32 15 -60 11 -138 55 -193 107 -63 59 -67 54 -39 -55 29 -115 81 -203
174 -296 47 -47 99 -95 115 -107 l30 -22 -90 0 c-75 -1 -104 4 -175 29 -46 17
-88 30 -93 30 -4 0 4 -19 18 -42 45 -73 94 -181 115 -251 20 -71 37 -207 26
-207 -3 0 -32 17 -64 39 -72 49 -158 80 -237 88 -68 6 -161 -2 -185 -17 -20
-12 -17 -104 5 -155 8 -21 13 -40 10 -43 -10 -10 -162 54 -219 93 -85 57 -97
62 -51 19 57 -53 148 -110 214 -134 67 -26 159 -45 168 -37 3 4 -7 19 -22 34
-35 35 -64 98 -65 140 0 43 28 50 132 35 134 -19 245 -91 322 -206 20 -30 36
-57 36 -60 0 -6 -26 -10 -160 -26 -328 -40 -755 -149 -1063 -271 l-99 -40 -66
59 c-90 79 -174 135 -258 171 -53 23 -89 49 -153 111 -123 119 -275 215 -404
256 -51 16 -56 20 -62 53 -11 59 -43 123 -83 164 l-36 37 30 0 c45 0 179 36
242 65 30 14 56 24 57 23 1 -2 10 -27 19 -55 24 -73 87 -154 192 -248 105 -94
210 -198 242 -240 l23 -30 -6 30 c-3 17 -20 59 -37 95 -25 52 -55 89 -152 184
l-121 119 68 -43 c105 -65 193 -93 316 -98 115 -5 184 7 270 44 128 57 202
138 290 319 38 76 69 124 114 171 74 80 132 120 306 213 73 39 142 78 154 86
l21 15 -25 0 c-82 0 -295 -79 -373 -138 -95 -72 -88 -69 -76 -36 39 100 141
239 199 268 14 7 53 17 86 20 98 12 175 35 271 81 114 55 234 167 319 298 56
86 180 335 171 344 -2 3 -23 -24 -47 -59 -210 -309 -369 -450 -572 -504 -82
-22 -85 -17 -25 36 31 28 77 81 102 119 45 67 90 160 82 168 -2 2 -50 -44
-107 -103 -107 -110 -187 -173 -274 -217 -48 -24 -60 -25 -285 -30 -161 -4
-252 -10 -290 -20 -208 -56 -328 -138 -600 -408 -193 -192 -304 -281 -413
-333 -96 -46 -166 -59 -273 -54 -99 5 -173 32 -246 90 -32 25 -38 27 -30 11
33 -60 124 -125 222 -158 63 -21 68 -25 147 -126 45 -57 82 -106 82 -109 1 -3
-65 -5 -146 -5 -189 0 -242 -14 -421 -109 -33 -18 -143 -115 -130 -116 4 0 13
6 20 13 187 179 496 228 764 121 90 -36 224 -120 298 -187 l60 -53 -130 -1
c-98 0 -150 -5 -218 -21 -90 -23 -264 -97 -253 -109 4 -3 12 -1 19 4 7 6 42
20 78 33 308 105 627 41 857 -173 40 -38 73 -73 73 -78 0 -5 -36 -27 -80 -49
l-81 -40 -72 34 c-152 73 -289 101 -452 93 -113 -6 -225 -25 -225 -39 0 -4 15
-4 33 0 17 4 93 7 167 7 150 -1 260 -23 374 -75 112 -51 112 -50 10 -105 -97
-53 -339 -202 -391 -242 -34 -25 -42 -50 -21 -71 21 -21 41 -14 121 43 118 84
225 150 412 255 l37 21 43 -36 c83 -67 178 -195 231 -308 38 -83 41 -81 -103
-95 -234 -22 -636 -92 -669 -117 -12 -8 -15 -19 -10 -38 8 -34 28 -34 139 -6
164 42 572 109 662 109 31 0 35 -4 46 -38 6 -20 14 -98 16 -173 l5 -137 -243
5 c-258 6 -583 -10 -606 -28 -16 -14 -17 -43 0 -57 8 -7 72 -6 207 4 107 7
291 14 408 14 206 0 212 -1 212 -20 0 -51 -94 -267 -135 -309 -12 -12 -30 -9
-127 22 -200 64 -470 122 -538 115 -28 -2 -36 -8 -38 -26 -5 -34 15 -52 57
-52 122 0 591 -108 591 -136 0 -7 -42 -52 -93 -101 -258 -246 -579 -371 -1037
-402 -144 -10 -259 -2 -548 36 -174 22 -245 27 -447 27 -209 0 -266 -3 -445
-28 -656 -90 -1139 3 -1500 290 -71 56 -180 167 -180 182 0 9 162 57 275 82
84 19 278 50 312 50 44 0 78 33 63 60 -14 26 -45 26 -190 -1 -147 -26 -247
-51 -389 -97 l-114 -36 -19 24 c-29 36 -83 146 -107 220 -36 108 -51 100 182
100 111 0 274 -5 362 -11 252 -16 256 -16 269 4 18 28 -5 51 -60 60 -27 4
-215 9 -419 11 l-370 4 1 129 c0 70 6 147 13 171 11 40 13 42 51 42 71 0 320
-39 520 -81 270 -57 268 -57 275 -26 9 35 1 45 -44 57 -134 36 -620 110 -723
110 -48 0 -49 12 -8 98 51 109 143 229 226 297 l44 36 93 -52 c122 -70 289
-176 367 -233 66 -48 88 -54 108 -34 21 21 13 46 -20 71 -53 40 -295 189 -392
242 -83 45 -88 49 -70 63 54 41 207 95 324 113 74 11 268 7 320 -7 15 -4 22
-3 17 2 -16 17 -113 34 -227 40 -171 9 -342 -28 -480 -104 l-45 -25 -83 42
c-45 23 -82 45 -82 50 0 13 121 124 175 161 63 43 176 94 255 114 89 23 249
31 336 17 74 -11 220 -56 242 -74 7 -5 15 -8 18 -5 7 8 -51 40 -126 70 -112
44 -213 62 -347 61 -68 0 -120 3 -117 8 2 5 37 35 77 67 179 147 331 210 528
219 188 9 330 -35 478 -148 l66 -50 -62 58 c-76 73 -197 135 -319 164 -74 18
-110 20 -211 17 -68 -3 -123 -2 -122 1 0 3 37 53 82 110 79 100 84 104 147
126 100 33 197 104 231 167 9 16 0 12 -33 -15 -24 -20 -71 -49 -104 -64 -54
-26 -69 -28 -179 -28 -137 0 -187 14 -307 86 -91 54 -178 129 -376 326 -93 92
-202 189 -252 224 -49 35 -88 65 -86 66 9 9 215 63 240 63 16 0 67 -18 114
-41 113 -54 207 -148 287 -284 70 -118 141 -197 210 -233 42 -23 62 -27 130
-26 67 0 88 4 134 28 54 28 144 105 162 138 9 16 7 16 -26 3 -47 -20 -117 -19
-196 3 -86 24 -138 56 -267 160 -138 111 -203 156 -278 192 -60 28 -156 63
-199 72 -18 4 -18 5 5 16 14 6 88 29 165 52 77 23 298 93 490 155 193 63 388
126 435 141 47 14 88 29 93 31 11 7 55 -99 73 -176 11 -45 16 -111 15 -208 -1
-79 3 -143 7 -143 5 0 13 15 19 33 6 17 28 77 48 132 20 55 47 140 59 189 l22
90 31 -55 c148 -259 267 -580 353 -955 16 -69 31 -128 34 -131 3 -3 8 5 11 18
3 13 25 112 50 219 69 296 109 445 148 550 38 100 121 261 165 319 l26 34 22
-89 c24 -99 113 -344 124 -344 4 0 8 64 9 143 1 204 31 309 135 477 88 142
184 241 431 444 66 54 168 148 226 207 58 60 113 109 122 109 21 0 32 -88 23
-204 -12 -174 -60 -316 -160 -471 -36 -55 -63 -101 -61 -103 2 -2 50 25 107
59 111 69 212 162 271 249 40 59 97 189 97 221 0 30 18 22 34 -15 25 -61 39
-149 38 -244 l-2 -93 69 36 c85 45 177 126 236 209 49 70 85 142 174 357 76
182 140 286 225 368 37 35 69 62 71 60 2 -2 -7 -41 -20 -86 -27 -92 -49 -273
-41 -337 20 -162 29 -217 35 -220 4 -3 25 32 49 77 80 158 193 270 345 345
155 76 254 97 424 90 128 -6 154 -17 102 -44 -63 -32 -233 -213 -216 -230 3
-3 19 14 35 38 55 79 152 159 246 201 21 10 35 21 32 25 -19 18 -115 34 -241
39 -120 4 -152 2 -228 -16 -165 -39 -333 -135 -437 -248 -33 -36 -60 -70 -60
-74 0 -5 -5 -9 -11 -9 -9 0 -10 24 -5 86 13 176 55 313 136 446 21 34 34 64
29 66 -16 6 -124 -30 -184 -61 -79 -43 -180 -144 -241 -244 -28 -45 -79 -148
-113 -230 -120 -287 -178 -386 -265 -457 -53 -44 -66 -45 -66 -3 0 53 -28 154
-63 231 -33 70 -120 210 -138 222 -5 3 -9 -38 -9 -98 0 -123 -24 -222 -76
-315 -35 -64 -83 -127 -91 -120 -2 2 3 24 11 48 32 94 49 229 42 344 -3 61 -8
119 -12 131 -5 18 7 28 78 69 374 216 597 360 863 560 375 281 678 569 891
845 l78 101 14 -68 c7 -37 29 -107 48 -154 75 -185 64 -312 -43 -522 -25 -48
-43 -90 -41 -92 9 -9 174 46 244 81 40 19 97 58 127 85 l55 49 35 -42 c85
-107 184 -286 231 -420 60 -173 78 -277 83 -500 3 -115 8 -208 12 -208 9 0 88
186 117 275 78 244 70 572 -20 839 -15 43 -25 80 -23 82 2 2 28 -9 58 -25 106
-57 232 -79 351 -61 94 14 220 52 219 65 -1 6 -30 19 -64 31 -111 38 -169 74
-253 158 -60 61 -90 100 -117 156 -38 77 -71 186 -61 201 3 5 22 9 43 9 153 0
349 86 474 207 48 46 127 153 127 171 0 4 -24 5 -52 1 -65 -9 -127 4 -177 35
-42 27 -91 81 -90 99 0 7 28 33 62 58 116 86 236 259 286 415 40 123 52 289
30 424 -12 78 -62 225 -75 224 -5 0 -20 -21 -33 -45 -26 -46 -148 -176 -157
-166 -3 2 2 33 11 68 54 206 72 568 40 801 -20 140 -54 340 -59 346 -6 5 -13
-51 -26 -198 -21 -235 -80 -396 -218 -595 -98 -141 -137 -185 -450 -497 l-307
-308 -7 168 c-7 176 -13 224 -47 361 -12 46 -21 87 -21 91 0 3 55 49 122 101
399 307 601 525 733 794 104 211 153 383 161 570 5 99 11 145 18 145 2 0 33
-35 68 -77z m-2612 -534 c306 -35 584 -131 810 -280 111 -74 311 -268 383
-372 173 -250 253 -484 264 -768 8 -218 -20 -381 -104 -604 -157 -415 -475
-823 -953 -1221 -705 -587 -1556 -1047 -2735 -1477 -470 -172 -1456 -494
-1905 -623 -836 -240 -1508 -364 -2194 -405 -253 -15 -817 -7 -1011 15 -468
52 -800 142 -1120 301 -213 107 -328 187 -481 340 -175 173 -279 340 -353 563
-53 160 -65 248 -65 442 0 182 16 289 63 437 132 412 620 912 1207 1235 142
79 404 192 404 176 0 -8 164 -492 205 -603 167 -464 423 -1097 456 -1130 19
-19 35 -20 457 -23 682 -5 1166 29 1742 124 445 73 993 212 1360 344 63 23
126 45 140 50 74 23 388 152 545 223 669 303 1308 691 1935 1176 208 161 277
220 283 241 7 28 -152 544 -301 980 -61 176 -203 559 -243 654 -16 38 -26 73
-21 78 13 13 234 66 387 92 130 23 282 41 415 50 80 5 331 -3 430 -15z m-1330
-1025 c0 -13 -173 -176 -262 -247 -218 -175 -498 -330 -763 -424 -127 -44
-278 -80 -254 -59 16 13 146 91 320 191 197 114 752 436 874 508 58 34 85 44
85 31z m-2240 -1735 c0 -16 -247 -131 -405 -188 -254 -91 -507 -151 -787 -186
-117 -14 -347 -21 -336 -10 28 29 926 264 1388 364 74 16 136 30 138 30 1 1 2
-4 2 -10z m-472 -509 c-39 -23 -300 -114 -446 -155 -318 -89 -633 -148 -1002
-187 -170 -18 -834 -18 -852 0 -9 9 -9 12 3 12 18 0 583 72 824 105 359 49
781 116 1310 210 150 26 189 30 163 15z m2952 -1074 c0 -2 -64 -57 -142 -122
-79 -65 -178 -152 -222 -194 -132 -126 -254 -306 -308 -452 -33 -93 -42 -74
-35 82 3 77 5 140 3 140 -1 0 -30 -35 -63 -77 -210 -272 -302 -466 -382 -803
-18 -74 -36 -144 -40 -154 -5 -14 -25 34 -69 170 -34 104 -91 256 -127 338
-62 144 -187 369 -219 396 -27 22 -18 35 37 54 28 10 103 36 165 58 62 22 118
38 126 35 7 -3 23 -45 36 -94 13 -48 27 -95 31 -103 10 -20 12 -14 52 140 l32
122 225 87 c328 127 544 219 820 350 62 29 80 35 80 27z m-1698 -775 c-2 -28
-7 -51 -11 -51 -3 0 -18 30 -32 68 l-27 67 32 11 c29 10 31 10 37 -17 3 -15 4
-50 1 -78z m-1849 -505 c105 -39 107 -42 101 -106 -10 -101 38 -189 128 -234
60 -30 138 -35 194 -11 l36 15 78 -68 c43 -37 79 -71 79 -75 2 -14 -104 -57
-176 -72 -273 -58 -491 84 -538 351 -15 83 -20 206 -8 217 12 12 41 7 106 -17z
m4797 -50 c0 -168 -52 -318 -138 -398 -111 -104 -250 -138 -415 -103 -72 15
-178 58 -176 72 0 4 36 38 79 75 l78 68 36 -15 c95 -40 224 0 282 87 34 51 49
118 39 177 -6 37 -5 39 32 56 70 34 128 54 156 55 l27 0 0 -74z m-5245 -97
c20 -39 35 -73 32 -75 -2 -3 -19 7 -37 22 -18 15 -64 44 -103 65 l-71 37 45
10 c90 20 93 19 134 -59z m-222 -15 c173 -87 318 -208 346 -289 7 -22 31 -76
53 -119 65 -133 145 -219 253 -271 92 -44 171 -58 292 -53 170 8 297 66 435
200 43 42 68 62 56 45 -25 -36 -121 -133 -219 -223 -104 -95 -189 -221 -189
-279 1 -16 7 -12 33 20 40 50 87 95 207 201 52 46 101 90 108 99 41 49 92 132
103 171 10 33 18 44 29 40 8 -3 53 -19 100 -35 47 -17 111 -33 143 -37 l58 -7
-35 -34 c-40 -41 -76 -111 -76 -150 0 -40 -8 -46 -80 -72 -143 -51 -271 -134
-403 -260 -45 -43 -99 -85 -126 -96 -98 -43 -170 -88 -254 -162 -79 -68 -90
-75 -110 -65 -71 36 -399 147 -567 191 -189 50 -380 87 -599 115 -62 8 -116
17 -119 20 -9 9 66 112 115 156 82 77 230 126 336 112 l38 -4 -7 -42 c-8 -53
-29 -93 -67 -133 l-31 -33 32 0 c87 0 266 84 362 169 52 47 46 55 -9 12 -99
-79 -303 -150 -253 -88 15 18 34 124 27 147 -8 26 -62 40 -150 40 -115 0 -223
-36 -306 -101 -20 -16 -40 -29 -44 -29 -11 0 2 124 20 195 20 79 48 145 98
228 22 37 37 70 35 73 -3 2 -27 -5 -54 -17 -93 -40 -246 -61 -297 -40 -15 6
-9 13 37 45 96 66 197 194 233 297 l17 47 145 24 c198 34 200 34 284 -8z
m-494 -110 c-51 -79 -161 -182 -238 -222 -31 -17 -87 -40 -126 -53 l-70 -23
42 -18 c81 -35 166 -52 266 -52 53 0 97 -1 97 -2 0 -1 -12 -33 -26 -70 -53
-140 -66 -279 -39 -424 7 -41 12 -76 11 -77 0 -1 -98 3 -216 9 -143 7 -279 7
-405 0 -104 -5 -191 -8 -193 -7 -1 1 17 31 40 66 53 80 177 210 257 269 33 25
61 48 61 53 0 4 -28 7 -62 7 -175 0 -353 43 -454 109 -74 48 -123 98 -103 105
8 2 32 10 54 16 76 23 140 61 198 118 31 31 57 62 57 68 0 7 -28 14 -72 18
-105 10 -181 32 -278 79 l-85 41 335 7 c327 6 597 24 856 57 105 14 130 15
132 4 2 -7 -15 -42 -39 -78z m-109 -978 c335 -40 673 -114 945 -208 108 -37
334 -125 354 -137 11 -7 8 -17 -16 -52 -49 -71 -91 -163 -114 -245 -17 -62
-20 -98 -17 -176 l4 -98 -176 0 c-218 -1 -340 -6 -548 -26 -90 -9 -166 -14
-168 -11 -3 3 15 34 40 70 62 89 148 253 190 365 20 52 36 96 36 99 0 3 -28
-20 -61 -52 -72 -66 -125 -101 -194 -128 -62 -25 -158 -46 -206 -47 l-37 0 26
63 c14 36 27 91 30 131 l5 68 -54 -7 c-101 -13 -184 -37 -274 -80 -85 -41
-225 -144 -225 -165 0 -6 -7 -10 -17 -10 -14 0 -15 11 -10 93 4 50 13 119 22
152 18 68 74 193 105 232 28 36 25 43 -17 43 -69 0 -177 -29 -251 -67 -77 -38
-201 -144 -282 -241 -45 -53 -45 -53 -48 -26 -8 65 47 260 110 391 37 78 41
82 76 86 88 11 642 -1 772 -17z m7988 17 l53 -6 38 -81 c21 -45 51 -119 65
-165 28 -88 56 -230 49 -244 -3 -4 -24 15 -49 42 -132 147 -241 233 -341 271
-60 22 -218 48 -229 38 -3 -4 13 -37 35 -74 50 -83 78 -157 97 -252 15 -81 19
-192 6 -192 -5 0 -19 12 -33 26 -107 114 -302 206 -488 230 l-54 7 6 -71 c3
-39 17 -98 30 -131 l25 -61 -34 0 c-76 0 -212 40 -288 85 -22 14 -70 51 -106
84 -36 33 -66 56 -68 52 -4 -12 85 -219 135 -311 25 -47 65 -114 90 -149 24
-35 42 -65 40 -68 -3 -2 -79 3 -168 11 -219 20 -330 25 -544 26 l-180 0 0 123
c0 93 -4 135 -19 177 -24 69 -70 162 -109 219 -24 35 -27 45 -16 52 8 5 70 31
139 58 406 159 804 253 1245 295 147 14 583 20 673 9z m-6488 -453 c33 -17 60
-32 60 -35 0 -3 -34 -37 -75 -76 -70 -67 -153 -172 -168 -211 -3 -10 -11 -18
-18 -18 -23 0 12 169 54 259 35 76 58 111 73 111 8 0 41 -14 74 -30z m4341
-13 c55 -92 113 -286 94 -317 -4 -6 -28 23 -55 63 -27 41 -85 108 -130 150
-44 43 -80 79 -80 82 0 8 114 64 130 65 8 0 27 -19 41 -43z m-3569 -1972 c93
-21 249 -43 371 -50 59 -4 107 -9 107 -12 0 -2 -16 -50 -36 -106 -20 -56 -50
-167 -67 -247 -30 -140 -31 -154 -32 -405 -2 -311 2 -306 -124 -150 -140 173
-210 334 -265 610 -20 101 -45 302 -46 368 0 10 21 9 92 -8z m2773 -62 c-36
-437 -146 -741 -344 -952 -90 -96 -90 -96 -84 142 7 281 -22 480 -107 720 -16
47 -30 87 -30 90 0 2 46 8 103 11 124 9 292 32 367 50 105 26 103 28 95 -61z
m-620 -377 c-9 -114 -31 -228 -61 -319 l-26 -78 -23 21 c-30 28 -82 126 -100
187 -19 66 -28 155 -20 192 6 29 9 31 53 31 30 1 69 11 107 29 33 15 64 26 68
23 5 -2 6 -41 2 -86z m-1440 34 c43 0 44 -1 51 -36 8 -42 -10 -164 -34 -226
-22 -57 -82 -156 -99 -162 -15 -6 -66 148 -81 249 -16 104 -24 203 -18 214 3
5 35 -2 71 -15 36 -13 86 -24 110 -24z m327 -25 c18 -18 -59 -275 -83 -275
-20 0 -76 151 -93 248 l-5 32 88 0 c48 0 90 -2 93 -5z m782 -32 c-17 -96 -73
-243 -93 -243 -23 0 -81 179 -81 250 l0 30 90 0 91 0 -7 -37z m-530 -18 c-3
-11 -19 -49 -36 -84 -29 -60 -32 -63 -45 -45 -15 20 -43 108 -43 133 0 13 13
16 65 16 60 0 64 -1 59 -20z m226 -2 c0 -35 -41 -134 -53 -131 -16 5 -67 106
-67 132 0 19 6 21 60 21 55 0 60 -2 60 -22z m-1076 -242 c17 -152 104 -365
220 -539 36 -54 116 -161 177 -236 61 -76 109 -140 106 -142 -8 -9 -78 25
-128 61 -27 19 -49 29 -49 22 1 -30 44 -102 92 -154 51 -54 52 -56 23 -49 -45
11 -145 70 -188 111 -21 20 -41 34 -44 32 -7 -8 43 -104 83 -158 43 -59 123
-131 182 -167 58 -33 39 -40 -35 -12 -182 68 -338 229 -392 406 -23 71 -28 74
-36 19 -9 -54 0 -146 20 -210 7 -25 11 -45 9 -45 -2 0 -30 16 -61 36 -139 88
-175 153 -198 359 -11 99 -42 137 -110 137 -62 0 -124 -50 -203 -165 l-40 -57
-4 177 c-2 98 -2 180 0 183 1 2 14 -9 26 -25 40 -50 66 -78 66 -71 0 4 -9 27
-20 52 -23 50 -55 173 -65 249 l-7 50 36 -50 c54 -76 74 -100 80 -94 3 3 -1
54 -9 115 -8 60 -15 129 -15 154 l0 45 49 -101 c85 -172 237 -353 310 -367 39
-8 74 5 94 34 14 19 15 53 10 247 -4 153 -3 223 4 219 6 -4 13 -33 17 -66z
m2295 -51 c-5 -57 -14 -131 -19 -164 -5 -33 -7 -62 -4 -65 6 -6 28 20 79 94
28 40 35 45 35 27 0 -60 -35 -188 -85 -317 -4 -11 14 4 41 34 l49 54 -2 -189
c-2 -104 -3 -191 -3 -192 0 -2 -22 30 -50 71 -91 137 -175 192 -246 162 -45
-18 -55 -43 -75 -172 -26 -171 -68 -244 -179 -310 l-43 -26 7 29 c13 59 19
221 8 240 -9 16 -12 12 -22 -26 -51 -189 -208 -358 -399 -429 -70 -27 -105
-23 -46 4 65 31 205 178 248 263 21 39 35 72 32 72 -4 0 -27 -18 -52 -40 -46
-40 -173 -110 -200 -110 -8 0 6 20 31 45 39 40 111 163 101 173 -2 2 -21 -10
-42 -27 -38 -30 -131 -76 -139 -68 -2 2 48 69 111 148 144 180 213 282 275
406 50 100 100 239 100 277 0 11 5 28 11 36 8 11 9 -34 5 -157 -6 -168 -6
-172 16 -197 22 -24 46 -31 95 -28 31 3 127 94 196 187 33 44 84 131 114 193
30 62 56 112 58 110 1 -2 -1 -50 -6 -108z m-2597 -600 c4 -19 11 -66 17 -105
24 -157 63 -227 171 -302 119 -83 137 -100 154 -150 32 -95 18 -156 -57 -239
-62 -68 -129 -98 -222 -98 -149 -1 -269 97 -326 266 -18 54 -20 79 -16 178 3
98 9 128 36 202 37 100 91 188 151 248 52 52 82 52 92 0z m2499 -2 c175 -178
243 -486 149 -683 -37 -77 -109 -151 -180 -184 -81 -38 -184 -37 -259 4 -59
33 -126 102 -148 155 -20 47 -12 138 17 185 12 20 60 61 112 97 49 33 100 75
113 93 43 56 75 145 91 249 8 55 17 107 19 114 9 24 44 11 86 -30z m-2641
-919 c19 -13 64 -50 100 -82 241 -219 531 -345 865 -377 142 -13 618 -13 760
0 216 21 417 81 588 176 78 43 208 139 323 237 102 86 144 119 144 110 0 -4
-18 -41 -40 -81 -149 -273 -362 -456 -618 -531 -210 -62 -435 -86 -787 -85
-682 1 -1007 109 -1250 414 -59 74 -113 157 -150 229 -32 64 -32 71 3 39 15
-13 43 -36 62 -49z m650 -6 c7 -32 10 -83 6 -116 -6 -58 -32 -155 -47 -171
-11 -13 -239 101 -239 119 0 35 217 225 257 225 6 0 17 -26 23 -57z m1480 20
c63 -42 190 -168 190 -189 0 -18 -228 -130 -240 -118 -14 14 -50 162 -50 205
0 56 20 139 33 139 7 0 37 -16 67 -37z m-1205 -195 c20 -67 32 -198 18 -198
-24 0 -179 32 -185 38 -22 23 100 212 137 212 8 0 21 -22 30 -52z m923 8 c44
-48 78 -107 83 -146 4 -22 -1 -25 -48 -36 -28 -6 -73 -15 -99 -19 l-47 -7 6
74 c8 90 33 178 51 178 7 0 32 -20 54 -44z m-610 -68 c25 -43 62 -128 62 -144
0 -2 -43 -4 -95 -4 -74 0 -95 3 -95 14 0 38 70 186 88 186 4 0 22 -24 40 -52z
m298 -14 c18 -32 36 -76 39 -96 l7 -38 -95 0 -95 0 10 38 c18 66 75 164 92
159 6 -2 24 -30 42 -63z"/>
<path d="M8365 18851 c-38 -10 -91 -27 -117 -38 -48 -22 -142 -82 -136 -88 2
-2 35 7 73 20 110 37 240 50 365 35 341 -40 595 -197 1024 -629 82 -83 151
-151 153 -151 13 0 -93 167 -184 287 -236 316 -504 505 -804 568 -96 20 -284
18 -374 -4z"/>
<path d="M8475 18485 c-66 -15 -140 -43 -132 -51 3 -3 56 -12 118 -20 211 -27
379 -95 546 -221 47 -35 87 -62 90 -59 3 3 -9 35 -26 71 -68 137 -221 249
-386 280 -92 18 -130 18 -210 0z"/>
<path d="M5160 16437 c0 -3 -9 -65 -20 -139 -104 -716 7 -1563 293 -2216 22
-51 42 -90 44 -88 3 2 -16 94 -41 203 -166 727 -256 1463 -256 2094 0 81 -4
140 -10 144 -5 3 -10 4 -10 2z"/>
<path d="M12280 10585 c-133 -30 -253 -96 -421 -231 -79 -63 -170 -129 -201
-145 -105 -53 -218 -72 -287 -48 -18 6 -34 9 -36 7 -11 -11 115 -121 165 -145
45 -22 70 -27 135 -27 70 -1 86 3 133 28 72 40 126 101 205 232 87 146 171
227 297 286 118 57 121 69 10 43z"/>
<path d="M10951 9874 c-32 -73 -101 -148 -220 -236 -134 -100 -226 -194 -257
-262 -27 -59 -37 -63 -48 -20 -17 68 -107 162 -268 282 -115 86 -189 164 -214
226 -21 50 -38 62 -28 19 21 -88 66 -148 238 -318 105 -103 179 -185 190 -209
10 -22 29 -89 42 -150 50 -246 56 -271 64 -279 4 -5 13 31 20 80 40 295 70
371 192 487 211 201 237 229 271 294 30 57 57 142 46 142 -2 0 -15 -25 -28
-56z"/>
<path d="M15270 9146 c0 -2 14 -6 30 -8 17 -3 30 -1 30 4 0 4 -13 8 -30 8 -16
0 -30 -2 -30 -4z"/>
<path d="M5483 9123 c9 -2 25 -2 35 0 9 3 1 5 -18 5 -19 0 -27 -2 -17 -5z"/>
<path d="M15383 9123 c9 -2 23 -2 30 0 6 3 -1 5 -18 5 -16 0 -22 -2 -12 -5z"/>
<path d="M5398 9103 c7 -3 16 -2 19 1 4 3 -2 6 -13 5 -11 0 -14 -3 -6 -6z"/>
<path d="M9248 8823 c7 -3 16 -2 19 1 4 3 -2 6 -13 5 -11 0 -14 -3 -6 -6z"/>
<path d="M9212 8458 c8 -22 113 -88 191 -118 104 -41 192 -60 312 -69 90 -7
97 -9 72 -19 -151 -64 -261 -156 -311 -262 -28 -60 -31 -74 -31 -170 0 -96 3
-110 29 -164 34 -68 91 -136 115 -136 32 0 40 20 34 90 -7 80 10 124 72 186
121 121 322 90 417 -64 45 -73 20 -185 -56 -246 -30 -25 -48 -31 -100 -34 -45
-3 -72 0 -95 12 -37 20 -67 14 -76 -15 -9 -29 57 -132 134 -209 118 -118 254
-160 516 -160 295 0 438 46 558 180 65 72 120 165 112 189 -9 28 -39 35 -74
17 -39 -21 -124 -20 -167 0 -47 22 -90 77 -104 131 -23 95 37 199 145 249 96
45 215 24 291 -52 61 -60 77 -104 71 -185 -8 -100 24 -118 86 -49 72 79 102
171 95 289 -9 158 -102 283 -276 369 l-95 47 114 7 c214 12 359 58 484 152 22
16 42 31 44 33 2 2 2 5 -1 8 -3 3 -21 -1 -40 -9 -19 -8 -79 -25 -134 -37 -87
-19 -146 -22 -494 -29 -346 -7 -407 -11 -493 -29 -76 -17 -106 -19 -135 -12
-99 27 -196 34 -552 41 -325 7 -400 11 -481 28 -52 11 -112 27 -133 36 -46 19
-49 19 -44 4z"/>
<path d="M6260 8041 c0 -5 9 -7 20 -4 11 3 20 7 20 9 0 2 -9 4 -20 4 -11 0
-20 -4 -20 -9z"/>
<path d="M14598 8043 c6 -2 18 -2 25 0 6 3 1 5 -13 5 -14 0 -19 -2 -12 -5z"/>
<path d="M6208 8023 c7 -3 16 -2 19 1 4 3 -2 6 -13 5 -11 0 -14 -3 -6 -6z"/>
<path d="M8700 7277 c0 -10 131 -111 186 -144 160 -96 414 -153 559 -124 49
10 45 11 -115 51 -170 41 -321 92 -470 157 -137 60 -160 68 -160 60z"/>
<path d="M12205 7263 c-60 -32 -237 -103 -357 -142 -119 -39 -322 -91 -353
-91 -23 0 -18 -17 8 -24 40 -10 152 -6 243 9 182 31 343 107 474 224 46 41 39
53 -15 24z"/>
<path d="M15430 7010 c0 -5 5 -10 11 -10 5 0 7 5 4 10 -3 6 -8 10 -11 10 -2 0
-4 -4 -4 -10z"/>
<path d="M15465 6990 c3 -5 8 -10 11 -10 2 0 4 5 4 10 0 6 -5 10 -11 10 -5 0
-7 -4 -4 -10z"/>
<path d="M15515 6960 c17 -11 35 -20 40 -20 6 0 -3 9 -20 20 -16 11 -34 20
-40 20 -5 0 4 -9 20 -20z"/>
<path d="M5266 6904 c-11 -8 -16 -14 -10 -14 13 0 39 18 34 24 -3 2 -14 -2
-24 -10z"/>
<path d="M13990 6381 c0 -6 4 -13 10 -16 6 -3 7 1 4 9 -7 18 -14 21 -14 7z"/>
<path d="M13330 6346 c0 -2 7 -7 16 -10 8 -3 12 -2 9 4 -6 10 -25 14 -25 6z"/>
<path d="M7489 6320 c-47 -25 -112 -97 -143 -159 -14 -28 -26 -54 -26 -59 0
-4 43 -6 96 -4 204 9 385 -74 500 -230 40 -55 84 -138 84 -159 0 -34 -186 37
-308 117 -53 34 -98 62 -99 60 -8 -7 61 -143 94 -189 61 -83 149 -146 352
-251 113 -59 210 -117 238 -142 l48 -43 -96 -1 c-105 0 -201 -21 -312 -68 -37
-16 -69 -31 -72 -34 -3 -3 41 -10 97 -17 264 -29 414 -190 548 -584 135 -401
225 -556 438 -758 249 -236 587 -389 955 -434 163 -19 1028 -19 1193 0 217 26
340 71 522 192 228 150 409 296 504 407 125 145 181 252 277 530 103 299 154
397 265 507 95 95 170 126 344 144 35 4 60 10 55 15 -15 13 -167 69 -231 86
-41 10 -94 14 -152 12 -50 -2 -90 0 -90 4 0 21 115 98 255 169 281 144 357
207 433 363 24 48 42 89 40 91 -2 2 -47 -25 -100 -59 -92 -60 -243 -126 -290
-126 -17 0 -19 4 -13 28 12 49 78 146 143 209 114 113 266 169 434 161 54 -3
98 -1 98 4 0 13 -50 108 -74 141 -21 28 -101 87 -119 87 -6 0 8 -13 30 -29 53
-38 123 -134 123 -168 0 -4 -53 -8 -118 -8 -130 0 -183 -11 -283 -61 -157 -78
-275 -219 -324 -387 -9 -32 -15 -61 -13 -66 3 -8 175 17 228 34 55 16 -48 -48
-213 -131 -180 -92 -267 -151 -322 -218 -33 -41 -108 -187 -99 -195 2 -2 32
10 66 27 85 41 140 54 223 50 l70 -3 -47 -27 c-115 -68 -230 -210 -301 -373
-19 -44 -60 -156 -92 -250 -32 -93 -77 -210 -100 -260 -72 -155 -199 -303
-391 -457 -94 -76 -333 -237 -404 -273 -71 -36 -203 -72 -330 -90 -118 -16
-451 -20 -574 -6 -38 4 -94 4 -125 -1 -95 -13 -379 -10 -491 6 -417 59 -761
233 -999 507 -144 166 -211 295 -316 604 -114 338 -214 487 -411 612 -16 10
-6 12 56 12 86 1 130 -9 215 -50 32 -15 61 -26 64 -24 8 8 -30 94 -69 153 -55
87 -141 150 -340 252 -97 49 -191 102 -210 116 l-35 26 30 -7 c159 -38 225
-44 225 -22 0 25 -39 127 -72 188 -17 34 -59 89 -92 124 -134 137 -294 201
-486 193 -49 -1 -90 1 -90 5 0 4 11 29 24 55 23 46 71 96 126 134 33 22 24 22
-21 -2z"/>
<path d="M9820 2848 c0 -79 22 -173 56 -239 14 -28 24 -53 21 -55 -6 -6 -133
63 -208 113 -36 24 -100 75 -142 114 -75 69 -77 70 -77 42 0 -51 40 -176 85
-263 58 -111 116 -183 317 -389 92 -95 197 -209 233 -254 126 -156 225 -336
290 -525 18 -51 36 -92 41 -90 5 1 21 39 36 84 92 276 225 476 515 774 209
215 279 302 340 427 40 83 85 244 72 257 -3 3 -32 -20 -65 -52 -33 -32 -93
-82 -134 -111 -81 -57 -209 -126 -217 -117 -3 3 6 32 20 63 14 32 30 85 36
117 13 70 14 166 3 166 -4 0 -28 -21 -52 -46 -25 -25 -67 -60 -95 -78 -27 -18
-97 -64 -155 -101 -172 -113 -245 -192 -281 -305 -14 -44 -19 -51 -24 -35 -55
154 -142 241 -400 401 -44 27 -107 75 -141 106 -34 32 -64 58 -68 58 -3 0 -6
-28 -6 -62z"/>
<path d="M12165 15876 c-105 -17 -197 -42 -248 -65 l-42 -19 205 -1 c400 -2
701 -46 1069 -157 62 -19 116 -33 118 -30 9 8 -162 115 -244 152 -105 48 -203
80 -320 105 -125 27 -418 35 -538 15z"/>
<path d="M13280 13539 c-540 -520 -987 -872 -1570 -1234 -149 -92 -479 -278
-640 -359 -63 -32 -119 -62 -124 -67 -15 -14 19 -11 61 5 21 8 88 33 148 54
771 279 1592 872 2112 1525 71 89 158 208 151 207 -2 -1 -64 -59 -138 -131z"/>
<path d="M3655 12323 c-66 -139 -99 -373 -76 -535 56 -395 318 -704 740 -873
140 -56 504 -156 517 -142 2 2 -55 30 -128 63 -246 110 -483 232 -572 296
-255 181 -417 427 -472 715 -21 110 -21 328 0 433 8 41 13 76 12 78 -2 1 -11
-14 -21 -35z"/>
<path d="M3959 12093 c-9 -30 -14 -94 -13 -168 0 -107 4 -129 31 -208 53 -150
128 -254 251 -346 61 -46 195 -111 207 -100 2 3 -31 41 -73 85 -80 81 -167
193 -215 276 -67 115 -136 321 -153 456 -4 28 -10 52 -14 52 -4 0 -14 -21 -21
-47z"/>
</g>
</svg>
